<?xml version="1.0" encoding="iso-8859-1"?>
<!-- Generator: Adobe Illustrator 19.0.0, SVG Export Plug-In . SVG Version: 6.00 Build 0)  -->
<svg version="1.1" id="Capa_1" xmlns="http://www.w3.org/2000/svg" xmlns:xlink="http://www.w3.org/1999/xlink" x="0px" y="0px"
	 viewBox="0 0 512 512" style="enable-background:new 0 0 512 512;" xml:space="preserve">
<g>
	<g transform="translate(1 1)">
		<path style="fill:#1566C0;" d="M501.957,274.968l-79.189,221.867c-1.272,3.378-4.498,5.619-8.107,5.632H7.535V186.733
			c0.014-4.707,3.826-8.52,8.533-8.533h401.067c9.414,0.027,17.039,7.652,17.067,17.067v68.267h59.733
			c2.774,0.017,5.369,1.376,6.962,3.647C502.49,269.452,502.885,272.354,501.957,274.968z"/>
		<g>
			<path style="fill:#2296F3;" d="M476.357,274.968l-79.189,221.867c-1.272,3.378-4.498,5.619-8.107,5.632H7.535V186.733
				c0.014-4.707,3.826-8.52,8.533-8.533h375.467c9.414,0.027,17.039,7.652,17.067,17.067v68.267h59.733
				c2.774,0.017,5.369,1.376,6.962,3.647C476.89,269.452,477.285,272.354,476.357,274.968z"/>
			<path style="fill:#2296F3;" d="M434.202,186.733v76.8H92.869V178.2h332.8C430.376,178.214,434.188,182.026,434.202,186.733z"/>
			<path style="fill:#2296F3;" d="M92.869,178.2v85.333l-44.203,7.339c-4.041,0.704-8.002-1.601-9.387-5.461L7.535,178.2H92.869z"/>
		</g>
		<path style="fill:#3F51B5;" d="M92.869,263.533L7.535,502.467V178.2l31.744,87.211c1.385,3.861,5.346,6.165,9.387,5.461
			L92.869,263.533z"/>
		<g>
			<circle style="fill:#1566C0;" cx="195.269" cy="323.267" r="25.6"/>
			<circle style="fill:#1566C0;" cx="348.869" cy="323.267" r="25.6"/>
		</g>
		<path style="fill:#607D8B;" d="M314.735,16.067v247.467H92.869V16.067c0.014-4.707,3.826-8.52,8.533-8.533h204.8
			C310.909,7.547,314.722,11.359,314.735,16.067z"/>
		<path style="fill:#37474F;" d="M357.402,58.733v204.8H135.535v-204.8c0.014-4.707,3.826-8.52,8.533-8.533h204.8
			C353.576,50.214,357.388,54.026,357.402,58.733z"/>
		<path style="fill:#607D8B;" d="M400.069,101.4v162.133H178.202V101.4c0.014-4.707,3.826-8.52,8.533-8.533h204.8
			C396.243,92.88,400.055,96.693,400.069,101.4z"/>
		<path style="fill:#CFD8DC;" d="M289.135,16.067v247.467H92.869V16.067c0.014-4.707,3.826-8.52,8.533-8.533h179.2
			C285.309,7.547,289.122,11.359,289.135,16.067z"/>
		<path style="fill:#607D8B;" d="M331.802,58.733v204.8H135.535v-204.8c0.014-4.707,3.826-8.52,8.533-8.533h179.2
			C327.976,50.214,331.788,54.026,331.802,58.733z"/>
		<path style="fill:#CFD8DC;" d="M374.469,101.4v162.133H178.202V101.4c0.014-4.707,3.826-8.52,8.533-8.533h179.2
			C370.643,92.88,374.455,96.693,374.469,101.4z"/>
		<circle style="fill:#FFEB3A;" cx="289.135" cy="195.267" r="68.267"/>
		<circle style="fill:#CFD8DC;" cx="289.135" cy="186.733" r="25.6"/>
		<path style="fill:#E91E63;" d="M323.269,241.517v12.8c-21.097,12.288-47.17,12.288-68.267,0v-12.8
			c1.464-17.435,16.683-30.447,34.133-29.184c8.798-0.122,17.344,2.939,24.064,8.619
			C319.456,225.961,323.149,233.503,323.269,241.517z"/>
	</g>
	<g>
		<path d="M0.655,506.702c0.044,0.108,0.115,0.198,0.163,0.303c0.204,0.481,0.453,0.943,0.742,1.378
			c0.227,0.288,0.473,0.56,0.736,0.815c0.131,0.144,0.243,0.29,0.383,0.424c0.684,0.651,1.473,1.182,2.333,1.572
			c0.178,0.081,0.359,0.135,0.544,0.205c0.948,0.379,1.957,0.583,2.978,0.601H415.69c7.211-0.012,13.641-4.545,16.075-11.333
			l79.237-221.858c1.869-5.227,1.078-11.037-2.12-15.575c-3.198-4.538-8.403-7.236-13.955-7.234h-51.191v-68.267
			c-0.011-9.421-7.645-17.056-17.067-17.067h-17.067V102.4c-0.011-9.421-7.645-17.056-17.067-17.067h-25.6v-25.6
			c-0.011-9.421-7.645-17.056-17.067-17.067h-25.6v-25.6C324.258,7.645,316.623,0.011,307.202,0h-204.8
			c-9.421,0.011-17.056,7.645-17.067,17.067v153.6h-76.8c-0.517,0.053-1.027,0.156-1.524,0.307
			c-0.469,0.029-0.935,0.099-1.393,0.209c-0.067,0.025-0.109,0.081-0.175,0.106c-0.602,0.275-1.168,0.62-1.688,1.029
			c-0.394,0.223-0.77,0.476-1.123,0.758c-0.367,0.411-0.692,0.858-0.97,1.333c-0.34,0.414-0.64,0.859-0.896,1.329
			c-0.15,0.444-0.264,0.9-0.34,1.363c-0.2,0.612-0.327,1.246-0.381,1.887c-0.002,0.074-0.043,0.136-0.043,0.211v324.267
			c0,0.11,0.059,0.202,0.063,0.313C0.087,504.781,0.287,505.77,0.655,506.702z M32.223,269.317c2.811,7.73,10.737,12.356,18.85,11
			l29.876-4.979l-63.88,178.865v-226.56L32.223,269.317z M415.69,494.933H20.644l79.237-221.867h395.045L415.69,494.933z
			 M264.535,250.154v-7.637c1.52-12.687,12.878-21.849,25.6-20.65c6.797-0.124,13.405,2.234,18.587,6.633
			c4.326,3.381,6.901,8.528,7.013,14.017v7.637C299.559,257.948,280.712,257.948,264.535,250.154L264.535,250.154z M273.069,187.733
			c0-9.426,7.641-17.067,17.067-17.067c9.426,0,17.067,7.641,17.067,17.067c0,9.426-7.641,17.067-17.067,17.067
			C280.714,204.789,273.079,197.155,273.069,187.733z M332.337,238.498c-1.105-8.969-5.58-17.182-12.518-22.973
			c-1.689-1.434-3.491-2.729-5.388-3.873c13.2-13.37,13.114-34.894-0.192-48.159c-13.306-13.265-34.83-13.284-48.159-0.042
			c-13.329,13.241-13.453,34.765-0.276,48.158c-9.753,5.76-16.337,15.663-17.876,26.884c-17.102-17.077-22.229-42.777-12.988-65.109
			c9.241-22.332,31.029-36.895,55.197-36.894c24.168,0.001,45.955,14.566,55.194,36.899S349.442,221.423,332.337,238.498
			L332.337,238.498z M426.669,187.733V256h-17.067v-68.267H426.669z M392.535,102.4V256h-54.234
			c25.37-20.427,35.095-54.636,24.265-85.355s-39.859-51.264-72.43-51.264s-61.601,20.546-72.43,51.264
			c-10.83,30.718-1.105,64.927,24.265,85.355h-54.234V102.4H392.535z M349.869,85.333H187.735
			c-9.421,0.011-17.056,7.645-17.067,17.067V256h-25.6V59.733h204.8V85.333z M102.402,17.067h204.8v25.6H145.069
			c-9.421,0.011-17.056,7.645-17.067,17.067V256h-25.6V17.067z M85.335,257.304l-37.071,6.18l-27.545-75.75h64.616V257.304z"/>
		<path d="M349.869,290.133c-17.176-0.037-31.693,12.722-33.861,29.761c-2.168,17.039,8.69,33.027,25.328,37.293v18.279
			c-0.005,4.711-3.822,8.529-8.533,8.533H213.335c-4.711-0.005-8.529-3.822-8.533-8.533v-18.279
			c16.643-4.297,27.494-20.299,25.328-37.35c-2.166-17.051-16.673-29.832-33.861-29.832s-31.695,12.781-33.861,29.832
			c-2.166,17.051,8.685,33.053,25.328,37.35v18.279c0.015,14.132,11.468,25.585,25.6,25.6h119.467
			c14.132-0.015,25.585-11.468,25.6-25.6v-18.279c16.638-4.267,27.496-20.254,25.328-37.293
			C381.561,302.855,367.045,290.097,349.869,290.133z M179.202,324.267c-0.042-8.293,5.883-15.417,14.045-16.885
			c8.162-1.468,16.199,3.144,19.048,10.933c2.85,7.788-0.312,16.498-7.494,20.645V332.8c0-4.713-3.821-8.533-8.533-8.533
			c-4.713,0-8.533,3.82-8.533,8.533v6.159C182.474,335.935,179.222,330.336,179.202,324.267z M358.402,338.959V332.8
			c0-4.713-3.821-8.533-8.533-8.533s-8.533,3.82-8.533,8.533v6.159c-6.69-3.862-9.951-11.736-7.952-19.197
			c1.999-7.461,8.761-12.649,16.485-12.649c7.724,0,14.486,5.188,16.485,12.649S365.092,335.097,358.402,338.959z"/>
	</g>
</g>
<g>
</g>
<g>
</g>
<g>
</g>
<g>
</g>
<g>
</g>
<g>
</g>
<g>
</g>
<g>
</g>
<g>
</g>
<g>
</g>
<g>
</g>
<g>
</g>
<g>
</g>
<g>
</g>
<g>
</g>
</svg>
